<svg width="464" height="120" viewBox="0 0 464 120" fill="none" xmlns="http://www.w3.org/2000/svg">
<g style="mix-blend-mode:color-burn">
<g style="mix-blend-mode:color-burn">
<path d="M101.048 105.855L56.8605 2.69556H39.8005V4.28034C40.9414 5.07984 42.0027 5.98233 42.9702 6.97588C43.9076 7.95187 44.7502 9.01057 45.4871 10.1384C46.0239 14.6993 45.4823 19.772 43.8624 25.3565C42.0858 31.3393 39.8028 37.1678 37.0369 42.782C33.9773 49.0494 30.5878 55.1584 26.8822 61.0848C23.0137 67.2683 19.196 73.2112 15.4291 78.9136C11.754 84.4037 8.56009 89.5542 5.84731 94.3652C3.13454 99.1761 1.34779 103.348 0.487052 106.881C-0.383356 110.418 -0.0859668 113.217 1.37922 115.279C2.84441 117.34 5.90292 118.37 10.5548 118.37C14.1331 118.583 17.8444 117.606 21.6887 115.441C25.7637 113.111 29.5991 110.403 33.1419 107.355C37.0214 104.046 40.7094 100.529 44.1888 96.8202C47.7575 93.0139 51.0602 89.5802 54.0969 86.5191C56.621 83.8974 59.365 81.486 62.3005 79.3098C64.7377 77.5623 69.5539 72.8291 71.1787 73.2112C73.3982 73.7418 73.4562 76.8548 74.9795 77.8523L86.2657 103.789C86.8581 105.469 87.3188 107.191 87.6439 108.939C87.8418 109.859 87.8354 110.808 87.6252 111.725C87.415 112.642 87.0058 113.503 86.4253 114.253V115.838H108.36V114.253C105.2 112.137 102.676 109.238 101.048 105.855ZM60.0447 61.863C57.2159 65.3156 53.3353 67.8767 52.3126 68.853C49.6986 71.437 47.3315 74.2479 45.2405 77.251C42.697 80.7884 39.9625 84.7221 37.0369 89.0519C34.1114 93.3818 31.1617 97.4758 28.1878 101.334C25.5122 104.858 22.4928 108.12 19.1718 111.076C16.1302 113.717 13.1515 115.09 10.2356 115.194C7.19886 115.194 5.26462 114.321 4.4329 112.576C3.60118 110.831 3.65679 108.428 4.59973 105.367C5.84506 101.596 7.4883 97.9609 9.50303 94.5208C11.8289 90.3466 14.6167 85.8847 17.8662 81.1351C21.1157 76.1685 24.474 70.9378 27.9412 65.4429C31.4083 59.9481 34.6022 54.4556 37.5229 48.9655C40.326 43.7226 42.8133 38.3247 44.9721 32.7993C45.799 30.6674 46.505 28.5897 47.0901 26.5663C47.2575 25.9717 47.6062 25.4406 48.0899 25.0437C48.5737 24.6467 49.1697 24.4025 49.799 24.3434C50.4283 24.2843 51.0612 24.4132 51.6137 24.7128C52.1662 25.0125 52.6123 25.4689 52.8929 26.0215L62.7502 45.7322C63.957 48.1605 64.4228 50.8759 64.0924 53.5551C63.7619 56.2343 62.6489 58.7645 60.8861 60.8442C60.6032 61.1909 60.3203 61.5517 60.0447 61.863Z" fill="black"/>
</g>
<g style="mix-blend-mode:color-burn">
<path d="M116.723 114.253C118.038 113.273 119.005 111.914 119.486 110.369C119.858 108.517 120.021 106.631 119.972 104.744V47.8547C120.017 45.9425 119.855 44.031 119.486 42.1523C119.024 40.577 118.055 39.1882 116.723 38.1904V36.6056H132.97V49.2838C135.773 44.9703 139.734 41.4883 144.423 39.2162C149.242 36.7466 154.569 35.3651 160.009 35.1741C165.449 34.983 170.864 35.9873 175.852 38.1126C181.138 40.3488 185.572 44.1443 188.531 48.9655C190.939 45.3454 194.19 42.332 198.019 40.1714C201.922 37.9177 206.218 36.3851 210.69 35.6505C215.242 34.9145 219.893 34.996 224.414 35.891C229.013 36.7725 233.331 38.713 237.006 41.551C240.95 44.6667 244.069 48.6604 246.102 53.1963C248.427 58.111 249.593 64.16 249.598 71.3434V104.779C249.546 106.666 249.709 108.553 250.084 110.404C250.565 111.949 251.531 113.308 252.847 114.288V115.873H233.365V114.288C234.684 113.295 235.674 111.944 236.208 110.404C236.63 108.559 236.767 106.664 236.614 104.779L236.128 76.409C236.017 66.3721 234.339 58.4223 231.094 52.5595C227.85 46.6968 223.896 42.7513 219.235 40.7232C214.578 38.7186 209.595 38.6408 204.286 40.4897C198.976 42.3386 194.158 45.902 189.83 51.1799C191.311 54.0212 192.43 57.0294 193.159 60.1368C194.014 63.801 194.428 67.5502 194.392 71.308V104.744C194.34 106.631 194.503 108.517 194.878 110.369C195.356 111.915 196.324 113.275 197.642 114.253V115.838H178.13V114.253C179.45 113.26 180.439 111.909 180.973 110.369C181.395 108.524 181.532 106.628 181.379 104.744L180.893 76.409C180.787 66.0325 179 57.8964 175.533 52.0006C172.066 46.1048 167.895 42.2396 163.021 40.4048C158.147 38.6125 152.975 38.8483 147.506 41.1123C142.037 43.3763 137.201 47.4703 132.999 53.3944V104.737C132.939 106.625 133.095 108.514 133.464 110.369C133.942 111.915 134.909 113.275 136.227 114.253V115.838H116.723V114.253Z" fill="black"/>
</g>
<g style="mix-blend-mode:color-burn">
<path d="M320.377 119C316.796 118.994 313.218 118.81 309.656 118.448C305.971 118.08 302.424 117.632 299.015 117.104C295.606 116.576 292.405 115.967 289.412 115.279C286.438 114.595 283.865 113.934 281.694 113.298V115.838H265.476V114.253C266.789 113.271 267.753 111.913 268.232 110.369C268.603 108.517 268.766 106.631 268.718 104.744V13.789C268.769 11.8907 268.606 9.99267 268.232 8.12907C267.747 6.59729 266.783 5.25165 265.476 4.28032V2.69554L281.709 0V49.9135C284.569 47.2144 287.764 44.8735 291.218 42.9447C294.501 41.1001 297.954 39.5604 301.532 38.346C304.839 37.2263 308.235 36.379 311.687 35.8132C314.718 35.3066 317.787 35.0416 320.863 35.0208C327.238 35.019 333.584 35.8712 339.721 37.5536C345.683 39.1487 351.299 41.7855 356.295 45.336C361.197 48.8525 365.223 53.4011 368.075 58.6439C371.049 64.035 372.538 70.426 372.543 77.8169C372.543 84.8919 371.133 91.0235 368.314 96.2117C365.59 101.287 361.7 105.679 356.948 109.046C351.95 112.536 346.33 115.089 340.374 116.573C333.846 118.234 327.123 119.05 320.377 119ZM281.709 93.4313C281.709 107.581 289.687 111.324 297.956 113.694C302.345 114.96 312.862 115.816 315.14 115.816C319.872 115.729 324.577 115.088 329.153 113.906C334.009 112.605 338.579 110.447 342.637 107.539C347.057 104.307 350.736 100.211 353.438 95.5113C354.112 94.3722 354.671 93.0705 355.265 91.7899C357.782 86.3564 358.167 82.3661 357.71 76.6071C357.507 74.2229 355.918 67.1551 350.739 64.1977C344.487 60.6603 339.895 57.1228 336.523 50.8474C335.299 48.5763 333.696 46.52 331.779 44.763C328.152 41.4165 323.844 38.3955 318.723 38.3955C316.464 38.4522 314.212 38.665 311.984 39.0323C308.723 39.5517 305.515 40.3471 302.395 41.4095C298.643 42.6778 295.047 44.3508 291.675 46.3973C288.621 48.2267 286.099 50.7889 284.349 53.8395C282.599 56.8901 281.68 60.3272 281.68 63.8228L281.709 93.4313Z" fill="black"/>
</g>
<g style="mix-blend-mode:color-burn">
<path d="M398.699 104.744C398.647 106.631 398.81 108.517 399.185 110.369C399.663 111.915 400.63 113.274 401.948 114.253V115.837H382.451V114.253C383.767 113.272 384.734 111.914 385.215 110.369C385.586 108.517 385.749 106.631 385.701 104.744V47.699C385.753 45.8007 385.59 43.9025 385.215 42.0391C384.726 40.5111 383.76 39.1704 382.451 38.2045V36.6055H398.699V49.9135C401.6 45.0601 405.012 41.5745 408.933 39.4567C412.743 37.3721 416.93 36.0267 421.264 35.4948C425.58 34.9712 429.946 34.9712 434.262 35.4948C438.614 36.0278 442.621 36.582 446.281 37.1574C449.458 37.6907 452.665 38.0403 455.885 38.2045C458.593 38.313 460.432 37.6267 461.404 36.1457C461.513 35.9334 461.593 35.7707 461.651 35.6646C461.751 35.4067 461.831 35.1418 461.89 34.8722H463.493C463.602 35.9334 463.711 36.8036 463.82 37.4899C463.921 38.0935 463.974 38.7037 463.979 39.3152C463.981 39.845 463.927 40.3736 463.82 40.8929C463.636 41.6112 463.363 42.305 463.007 42.9588L456.479 51.194C455.29 52.6797 453.418 52.991 450.872 52.1491C447.861 51.1231 444.907 49.9423 442.023 48.6117C438.667 47.0835 435.041 45.4987 431.143 43.8573C427.45 42.2657 423.479 41.3772 419.444 41.2396C415.473 41.1594 411.56 42.1773 408.157 44.1757C404.526 46.2369 401.358 50.1705 398.655 55.9767L398.699 104.744Z" fill="black"/>
</g>
</g>
</svg>
