<svg width="63" height="78" viewBox="0 0 63 78" fill="none" xmlns="http://www.w3.org/2000/svg">
<g clip-path="url(#clip0_75_1309)">
<path d="M18.4633 77.6664C14.2692 77.6664 10.8592 76.0215 8.59807 72.9125C3.17541 66.2341 0.358085 57.047 0.22816 45.6331C0.0640437 37.4609 2.32064 29.6118 4.78693 22.3469C6.5375 16.6468 9.17476 11.5538 12.6189 7.21455C14.2056 5.04581 16.2783 3.28323 18.669 2.06963C21.0597 0.856016 23.7013 0.2255 26.3796 0.229156C28.0561 0.22154 29.7218 0.500438 31.3053 1.05393C33.179 1.69771 35.0481 2.70119 37.3639 4.30721C40.6463 6.55931 43.8101 9.50559 47.318 13.5791C53.8211 20.8646 58.5805 28.6381 61.432 36.7003C63.431 42.7784 63.1871 50.1991 60.7619 57.0654C59.2803 61.1892 56.2396 64.6396 51.7241 67.3453C44.9035 71.5051 37.4016 74.4134 29.5684 75.9344C27.1113 76.443 24.1959 77.0227 21.2259 77.4442C20.3119 77.5881 19.3884 77.6624 18.4633 77.6664ZM26.6463 1.41592C23.7597 1.4493 20.9295 2.22375 18.4245 3.66572C15.4864 5.32215 13.3757 8.16075 11.6251 10.6924C9.71957 13.4432 8.12265 16.3976 6.86346 19.5014C5.98361 21.765 5.16987 24.0789 4.559 25.8499C1.87616 33.4264 0.684037 39.7084 0.78433 45.6262C0.925652 56.708 3.84555 65.6522 9.45968 72.2023C11.5339 74.9034 14.545 76.3262 18.1738 76.3262C18.575 76.3262 18.9875 76.3078 19.4024 76.2735C20.264 76.2162 21.5313 76.0077 22.4567 75.8542L22.6847 75.8176C25.8029 75.2837 29.0328 74.6262 32.5567 73.8037C39.046 72.17 45.2651 69.5986 51.0198 66.17C56.3991 62.9625 59.1708 59.2968 60.5932 53.4478C62.0702 47.3605 62.052 41.8231 60.5385 36.9912C59.8291 34.8656 58.9918 32.7853 58.0312 30.7619C55.2959 24.9197 51.5007 19.3067 46.771 14.0671C43.4043 10.2089 40.1608 7.27641 36.842 5.09992C35.3148 4.08498 33.2679 2.82491 30.9748 2.0849C29.577 1.63004 28.1155 1.40416 26.6463 1.41592Z" fill="#1E1E1E"/>
<path d="M26.3791 0.458234C28.0291 0.451602 29.6684 0.725821 31.2273 1.26926C33.3905 2.01385 35.3621 3.20061 37.2312 4.49505C40.974 7.06331 44.1879 10.2983 47.142 13.728C53.1642 20.4751 58.1697 28.2051 61.2127 36.7759C63.3348 43.2252 62.7855 50.639 60.5448 56.9874C58.9242 61.4962 55.6213 64.7426 51.6051 67.1505C44.803 71.2882 37.3272 74.1858 29.5224 75.7099C26.7597 76.2918 23.988 76.821 21.198 77.2082C20.2933 77.3535 19.3789 77.4301 18.4628 77.4373C14.6744 77.4373 11.1961 76.0993 8.7822 72.7773C2.61874 65.1871 0.567287 55.2142 0.455597 45.6307C0.305157 37.6602 2.47286 29.9027 5.01437 22.4202C6.68516 16.9812 9.26771 11.8172 12.8099 7.35886C14.184 5.49511 15.9163 3.92761 17.9043 2.74928C20.4872 1.26818 23.4055 0.479258 26.3791 0.458234ZM18.1733 76.5667C18.5858 76.5667 19.003 76.5484 19.4224 76.5117C20.3638 76.4522 21.7747 76.2116 22.7229 76.0535C26.0326 75.4899 29.3332 74.8003 32.6109 74.0374C39.119 72.392 45.3572 69.8125 51.1332 66.3784C56.4009 63.2489 59.339 59.5236 60.8024 53.5142C62.1153 48.1074 62.423 42.2881 60.7431 36.9339C60.0289 34.7988 59.1878 32.7087 58.2244 30.6748C55.3455 24.5463 51.4523 18.9378 46.9255 13.925C43.9623 10.5342 40.7141 7.38864 36.9509 4.9189C35.0977 3.68631 33.1489 2.56141 31.0245 1.87868C29.6093 1.41569 28.1294 1.18364 26.6412 1.19137C23.7162 1.21925 20.8471 2.00014 18.3078 3.4595C15.4038 5.10676 13.3159 7.84456 11.4377 10.5617C9.52042 13.325 7.91497 16.2942 6.65097 19.4143C5.83267 21.5083 5.07364 23.6459 4.33967 25.7743C2.08536 32.1525 0.432803 38.8172 0.55589 45.6285C0.683536 55.2004 2.96292 64.9626 9.28594 72.3604C11.5152 75.2631 14.6699 76.5667 18.1756 76.5667M26.3791 2.48164e-05C23.6657 -0.00256308 20.9899 0.637206 18.5683 1.86752C16.1468 3.09783 14.0475 4.88409 12.4406 7.08164C8.98507 11.4323 6.33642 16.5482 4.57445 22.2781C2.10587 29.5545 -0.155279 37.4311 -0.000280491 45.6399C0.120527 57.0951 2.96292 66.328 8.4175 73.0522C10.7334 76.2185 14.2049 77.8955 18.4628 77.8955C19.3979 77.8888 20.3312 77.8122 21.255 77.6664C24.2182 77.2426 27.1472 76.6652 29.609 76.1543C37.467 74.6278 44.9927 71.7103 51.8353 67.5377C56.3941 64.8045 59.4689 61.3061 60.9688 57.1387C63.41 50.2243 63.6562 42.7509 61.6412 36.6292C58.776 28.5396 54.0212 20.734 47.4839 13.4233C43.9691 9.34061 40.8008 6.38287 37.4911 4.1239C35.1593 2.50184 33.2788 1.4892 31.3755 0.836256C29.7691 0.275248 28.0796 -0.00751476 26.3791 2.48164e-05ZM18.1733 76.5667C14.6197 76.5667 11.6725 75.1738 9.65065 72.5391V72.5276C6.71024 69.091 4.49011 64.9282 3.04042 60.156C1.76852 55.9359 1.08927 51.2071 1.02544 46.1027C0.918313 40.2124 2.11499 33.9602 4.78643 26.3997C5.39731 24.6242 6.21105 22.3033 7.0909 20.0512C8.3071 16.8025 9.89267 13.7058 11.8161 10.8229C13.5484 8.30277 15.6386 5.49624 18.5357 3.85585C21.0078 2.43724 23.7993 1.67628 26.6458 1.64499C28.0855 1.63821 29.517 1.86409 30.8854 2.31398C33.1648 3.04711 35.1843 4.29573 36.6979 5.29234C39.9984 7.45966 43.2306 10.3785 46.5813 14.2274C51.2996 19.4533 55.0766 25.0503 57.8096 30.8718C58.7698 32.8876 59.6071 34.9603 60.3169 37.0783C61.8167 41.8643 61.8349 47.3605 60.3647 53.4043C58.9698 59.1777 56.2299 62.8204 50.9076 65.9821C45.1725 69.4007 38.974 71.9644 32.5061 73.5929C28.9844 74.4131 25.7568 75.0707 22.6454 75.6045L22.4175 75.6411C21.5057 75.7946 20.2338 76.0031 19.3882 76.0581C18.9711 76.0925 18.5631 76.1108 18.1664 76.1108L18.1733 76.5667Z" fill="#1E1E1E"/>
<path d="M46.8027 54.0824L31.3438 16.8942H25.3764V17.4646C25.7741 17.7542 26.1449 18.0793 26.4842 18.436C26.813 18.7895 27.1083 19.173 27.3663 19.5816C27.5563 21.2204 27.3663 23.0487 26.7965 25.0663C26.1764 27.2235 25.3781 29.3248 24.4099 31.3484C23.3399 33.6077 22.1546 35.81 20.8587 37.9466C19.5108 40.175 18.1751 42.3133 16.8515 44.3615C15.5629 46.3471 14.4452 48.2036 13.4985 49.931C12.5518 51.6585 11.9273 53.166 11.6249 54.4535C11.3209 55.7289 11.425 56.7377 11.9371 57.48C12.4492 58.2223 13.5198 58.5942 15.1488 58.5957C16.3979 58.6721 17.6956 58.3193 19.042 57.5373C20.4682 56.699 21.8102 55.7238 23.0492 54.6254C24.4102 53.4327 25.7038 52.1645 26.9241 50.8268C28.1747 49.4522 29.3304 48.2143 30.3911 47.113C31.2739 46.1681 32.2339 45.2991 33.2608 44.515C34.1133 43.885 35.8069 42.1781 36.3676 42.3156C37.1426 42.5057 37.1654 43.6284 37.6965 43.9881L41.6444 53.3401C41.8517 53.9456 42.0132 54.5659 42.1276 55.1958C42.1971 55.5268 42.195 55.8689 42.1215 56.1989C42.048 56.529 41.9047 56.8393 41.7014 57.1089V57.6816H49.3738V57.1089C48.2632 56.3489 47.3754 55.3039 46.8027 54.0824ZM32.4585 38.2238C31.4669 39.4701 30.1107 40.3911 29.7528 40.7439C28.8391 41.6755 28.0114 42.6885 27.2797 43.7704C26.3877 45.0458 25.4311 46.4647 24.4099 48.0272C23.3888 49.5897 22.3562 51.0689 21.3123 52.4649C20.3774 53.7371 19.3208 54.9143 18.1576 55.9794C17.0939 56.9294 16.0522 57.4243 15.0325 57.464C13.9704 57.464 13.3002 57.1501 13.0153 56.5201C12.7304 55.89 12.7486 55.0263 13.0723 53.922C13.5035 52.5615 14.0749 51.2501 14.7773 50.0089C15.5918 48.506 16.5673 46.8969 17.704 45.1817C18.8422 43.3916 20.0168 41.5069 21.2279 39.5274C22.439 37.5479 23.5567 35.5677 24.5809 33.5867C25.5636 31.697 26.4365 29.7517 27.1954 27.7606C27.4856 26.9969 27.7325 26.247 27.9362 25.5108C27.9941 25.2951 28.1162 25.1023 28.2861 24.9582C28.4559 24.8141 28.6655 24.7256 28.8868 24.7044C29.108 24.6833 29.3305 24.7305 29.5243 24.8398C29.7182 24.9491 29.8743 25.1152 29.9717 25.316L33.4044 32.4183C33.828 33.2941 33.9918 34.2741 33.8762 35.241C33.7606 36.2079 33.3705 37.1209 32.7525 37.871L32.4585 38.2238Z" fill="#1E1E1E"/>
</g>
<defs>
<clipPath id="clip0_75_1309">
<rect width="63" height="77.8909" fill="white"/>
</clipPath>
</defs>
</svg>
