<svg xmlns="http://www.w3.org/2000/svg" fill="none" viewBox="0 0 112 29">
  <path fill="#fff" d="M24.392 25.796 13.725.656H9.607v.387c.276.195.532.415.766.657.226.238.43.496.607.77.13 1.112-.001 2.348-.392 3.71a27.152 27.152 0 0 1-1.648 4.246 48.902 48.902 0 0 1-2.451 4.46 209.014 209.014 0 0 1-2.765 4.345 58.408 58.408 0 0 0-2.313 3.765C.757 24.17.325 25.186.117 26.046c-.21.862-.138 1.544.216 2.047.353.502 1.092.753 2.215.753.863.052 1.76-.186 2.687-.714A17.753 17.753 0 0 0 8 26.162a33.335 33.335 0 0 0 2.667-2.568c.861-.927 1.658-1.764 2.391-2.51a15.904 15.904 0 0 1 1.98-1.757c.589-.426 1.752-1.579 2.144-1.486.536.13.55.888.917 1.131l2.725 6.32c.143.41.254.83.332 1.256a1.58 1.58 0 0 1-.294 1.295v.386h5.295v-.386a5.144 5.144 0 0 1-1.765-2.047Zm-9.898-10.72c-.683.841-1.62 1.465-1.866 1.703a14.61 14.61 0 0 0-1.707 2.047c-.614.862-1.275 1.82-1.98 2.875a59.065 59.065 0 0 1-2.137 2.993 16.634 16.634 0 0 1-2.176 2.375c-.734.643-1.453.978-2.157 1.003-.733 0-1.2-.213-1.401-.638-.2-.425-.187-1.01.04-1.757.3-.919.697-1.805 1.184-2.643a42.292 42.292 0 0 1 2.019-3.262 276.59 276.59 0 0 0 2.432-3.824 62.969 62.969 0 0 0 2.313-4.015 36.791 36.791 0 0 0 1.798-3.94c.2-.52.37-1.026.511-1.519a.74.74 0 0 1 .241-.371.76.76 0 0 1 1.16.238l2.38 4.804a3.386 3.386 0 0 1-.45 3.682c-.07.085-.137.173-.204.249Zm13.682 12.767c.317-.24.55-.57.667-.947a6.22 6.22 0 0 0 .117-1.37V11.661a6.494 6.494 0 0 0-.117-1.39 1.864 1.864 0 0 0-.667-.965V8.92h3.922v3.09a6.88 6.88 0 0 1 2.764-2.454 8.885 8.885 0 0 1 7.587-.269 6.623 6.623 0 0 1 3.06 2.645 6.728 6.728 0 0 1 2.29-2.144 8.997 8.997 0 0 1 3.06-1.101 9.28 9.28 0 0 1 3.312.058 7.154 7.154 0 0 1 3.04 1.38 7.55 7.55 0 0 1 2.196 2.838c.561 1.197.842 2.671.844 4.422v8.148c-.013.46.026.92.117 1.37.116.377.35.708.667.947v.386h-4.703v-.386a2.01 2.01 0 0 0 .686-.946c.102-.45.135-.912.098-1.371L57 18.62c-.027-2.446-.432-4.383-1.215-5.812-.783-1.428-1.737-2.39-2.863-2.884-1.124-.489-2.327-.508-3.608-.057-1.282.45-2.445 1.319-3.49 2.605a9.39 9.39 0 0 1 .804 2.183c.206.893.306 1.807.297 2.722v8.148c-.012.46.027.92.118 1.371.115.377.349.708.667.947v.386H43v-.386a2.01 2.01 0 0 0 .686-.947 4.54 4.54 0 0 0 .098-1.37l-.117-6.906c-.026-2.528-.457-4.511-1.294-5.948-.837-1.437-1.844-2.379-3.02-2.826-1.177-.436-2.425-.379-3.745.173-1.32.551-2.488 1.55-3.502 2.993v12.512c-.015.46.023.92.112 1.372.115.377.349.708.667.947v.386h-4.708v-.386ZM77.336 29a25.765 25.765 0 0 1-2.588-.135 47.39 47.39 0 0 1-2.569-.328 32.397 32.397 0 0 1-2.318-.444 32.87 32.87 0 0 1-1.863-.483v.619h-3.915v-.386c.317-.24.55-.57.666-.947a6.22 6.22 0 0 0 .117-1.37V3.36a6.224 6.224 0 0 0-.117-1.379 1.875 1.875 0 0 0-.666-.938V.657L68.002 0v12.164a11.554 11.554 0 0 1 2.295-1.699c.793-.45 1.626-.824 2.49-1.12.798-.273 1.618-.48 2.451-.618a13.886 13.886 0 0 1 2.215-.193c1.54 0 3.07.208 4.552.618a12.419 12.419 0 0 1 4.001 1.896 9.669 9.669 0 0 1 2.844 3.243c.718 1.314 1.077 2.871 1.078 4.672 0 1.725-.34 3.219-1.02 4.483a9.099 9.099 0 0 1-2.744 3.128 12.043 12.043 0 0 1-4 1.834 18.85 18.85 0 0 1-4.828.591Zm-9.334-6.231c0 3.448 1.926 4.36 3.922 4.937 1.06.309 3.598.518 4.148.518a14.474 14.474 0 0 0 3.382-.466 10.009 10.009 0 0 0 3.255-1.552 9.465 9.465 0 0 0 2.607-2.93c.163-.278.298-.595.442-.907.607-1.325.7-2.297.59-3.7-.05-.581-.433-2.304-1.683-3.024-1.51-.862-2.618-1.725-3.432-3.254a5.637 5.637 0 0 0-1.145-1.483c-.875-.815-1.915-1.551-3.151-1.551-.546.014-1.09.065-1.627.155-.787.126-1.562.32-2.315.58-.906.308-1.773.716-2.588 1.215a5.019 5.019 0 0 0-1.768 1.813 4.925 4.925 0 0 0-.644 2.433l.007 7.216Zm28.24 2.756c-.013.46.027.92.117 1.371.116.377.35.708.668.947v.386H92.32v-.386c.318-.24.551-.57.667-.947a6.22 6.22 0 0 0 .118-1.37V11.623a6.2 6.2 0 0 0-.118-1.38 1.872 1.872 0 0 0-.667-.934v-.39h3.922v3.244c.7-1.183 1.524-2.033 2.47-2.549a8.257 8.257 0 0 1 2.977-.965 12.91 12.91 0 0 1 3.138 0c1.05.13 2.017.265 2.901.405.767.13 1.541.215 2.318.255.654.027 1.098-.14 1.333-.502l.059-.117c.024-.063.044-.127.058-.193h.387c.026.259.052.47.079.638.024.147.037.296.038.445 0 .129-.012.258-.038.384a2.273 2.273 0 0 1-.196.504l-1.576 2.007c-.287.362-.739.438-1.354.232-.727-.25-1.44-.537-2.136-.862a99.283 99.283 0 0 0-2.626-1.158 7.753 7.753 0 0 0-2.824-.638 5.138 5.138 0 0 0-2.725.715c-.876.503-1.64 1.461-2.293 2.876l.01 11.884Z" style="mix-blend-mode:color-burn"/>
</svg>
